<svg width="126" height="43" viewBox="0 0 126 43" fill="none" xmlns="http://www.w3.org/2000/svg">
<path d="M36.4519 1.03249C32.1125 0.425141 27.2523 0 21.9583 0C17.7925 0 12.8455 0.242938 7.29112 1.06285C1.85241 1.88277 -1.44554 7.77401 0.637375 13.1186C2.08384 16.8234 3.84853 20.7712 5.9893 24.8708C8.96902 30.5191 12.1223 35.4082 15.2178 39.5989C18.6314 44.2147 25.2852 44.1843 28.641 39.5381C31.6785 35.3475 34.8029 30.4583 37.7537 24.9011C39.8945 20.8623 41.6591 16.9449 43.1635 13.2401C45.2753 7.83475 41.9484 1.8524 36.4519 1.03249ZM33.6747 17.7041C33.3854 18.4329 32.9514 19.0706 32.4596 19.5869C31.9389 20.1335 31.3314 20.5586 30.6371 20.8623C29.9428 21.166 29.1906 21.3178 28.3806 21.3178H26.6159C26.5291 21.3178 26.5291 21.4089 26.587 21.4696L33.0671 25.4477C33.3275 25.5996 33.2118 25.9944 32.9225 25.9944H27.4259C27.2523 25.9944 27.0788 25.9336 26.9341 25.8425L17.2717 19.9209C17.0114 19.7691 16.8667 19.5869 16.7799 19.3439C16.6931 19.101 16.6931 18.8581 16.751 18.6151C16.8089 18.3722 16.9246 18.1596 17.1271 18.0078C17.3296 17.8256 17.561 17.7648 17.8503 17.7648H28.4095C29.017 17.7648 29.5667 17.5523 30.0006 17.0968C30.4346 16.6412 30.666 16.0946 30.666 15.4569C30.666 14.8192 30.4346 14.2726 30.0006 13.8171C29.5667 13.3616 29.046 13.149 28.4095 13.149H13.9449V24.9011C13.9449 25.5388 13.4531 26.0247 12.8745 26.0247H11.5437C10.9362 26.0247 10.4733 25.5085 10.4733 24.9011V10.2338C10.4733 9.74788 10.8494 9.38347 11.2834 9.38347L28.4095 9.35311C29.2195 9.35311 29.9428 9.50494 30.666 9.80862C31.3603 10.1123 31.9678 10.5374 32.4886 11.084C33.0093 11.6306 33.4143 12.2684 33.7036 12.9972C33.9929 13.726 34.1665 14.5155 34.1665 15.3355C34.1375 16.1857 33.9929 16.9753 33.6747 17.7041Z" fill="#333333"/>
<path d="M61.7353 22.9273V25.5085C61.7353 25.8122 61.5039 26.0551 61.2146 26.0551H48.1964C47.3864 26.0551 46.6342 25.9033 45.9399 25.5692C45.2456 25.2655 44.6381 24.81 44.1174 24.2938C43.5966 23.7472 43.1916 23.1095 42.9023 22.3807C42.613 21.6518 42.4395 20.8623 42.4395 20.012C42.4395 19.1617 42.5841 18.3722 42.9023 17.6434C43.1916 16.9146 43.6256 16.2768 44.1174 15.7302C44.6381 15.1836 45.2456 14.7585 45.9399 14.4548C46.6342 14.1511 47.3864 13.9689 48.1964 13.9689H59.5945C60.0863 13.9689 60.5203 14.0904 60.8674 14.3637C61.2435 14.637 61.5039 14.9711 61.6774 15.3658C61.851 15.7606 61.9378 16.1857 61.9089 16.6716C61.88 17.1271 61.7064 17.5826 61.3882 17.947L58.2349 22.077C58.1481 22.1985 58.2349 22.3503 58.3506 22.3503H61.1567C61.4749 22.3807 61.7353 22.6236 61.7353 22.9273ZM48.1675 17.5523C47.8492 17.5523 47.5599 17.613 47.2996 17.7648C47.0392 17.8863 46.7789 18.0685 46.5763 18.3114C46.3738 18.524 46.2003 18.7973 46.0845 19.101C45.9688 19.4047 45.911 19.7083 45.911 20.0424C45.911 20.7105 46.1424 21.2571 46.5763 21.7126C47.0103 22.1681 47.531 22.411 48.1675 22.411H53.1144C53.4905 22.411 53.8376 22.2288 54.069 21.9251L57.2513 17.7041C57.2802 17.6434 57.2513 17.5826 57.1934 17.5826H48.1675V17.5523Z" fill="#333333"/>
<path d="M68.9677 13.9689H76.7787C77.5598 13.9689 78.3119 14.1208 79.0062 14.4548C79.7005 14.7585 80.308 15.214 80.8577 15.7302C81.3784 16.2768 81.7834 16.9146 82.1017 17.6434C82.391 18.3722 82.5645 19.1617 82.5645 20.012V25.5085C82.5645 25.8122 82.3331 26.0551 82.0438 26.0551H79.5559C79.2666 26.0551 79.0352 25.8122 79.0352 25.5085V20.012C79.0352 19.3439 78.8327 18.7973 78.3987 18.3418C77.9648 17.8863 77.444 17.6434 76.8076 17.6434H68.9967C68.3602 17.6434 67.8395 17.8863 67.4056 18.3418C66.9716 18.7973 66.7402 19.3439 66.7402 20.012V25.5085C66.7402 25.8122 66.5088 26.0551 66.2195 26.0551H63.7605C63.4712 26.0551 63.2397 25.8122 63.2397 25.5085V20.012C63.2397 19.1617 63.3844 18.3722 63.7026 17.6434C63.9919 16.9146 64.4258 16.2768 64.9176 15.7302C65.4384 15.1836 66.0459 14.7585 66.7402 14.4548C67.4345 14.1208 68.1577 13.9689 68.9677 13.9689Z" fill="#333333"/>
<path d="M87.4824 13.9689H96.2769C96.5662 13.9689 96.7976 14.2118 96.7976 14.5155V17.0967C96.7976 17.4004 96.5662 17.6433 96.2769 17.6433H87.4824V20.012C87.4824 20.6801 87.7138 21.2267 88.1478 21.6822C88.5817 22.1377 89.1024 22.3806 89.7389 22.3806H98.0995C98.3887 22.3806 98.6202 22.6236 98.6202 22.9272V25.5085C98.6202 25.8121 98.3887 26.0551 98.0995 26.0551H89.7389C88.9289 26.0551 88.1767 25.9032 87.4824 25.5692C86.7881 25.2655 86.1806 24.81 85.6598 24.2938C85.1391 23.7472 84.7341 23.1094 84.4448 22.3806C84.1555 21.6518 83.9819 20.8623 83.9819 20.012V10.8107C83.9819 10.507 84.2134 10.2641 84.5027 10.2641H86.9617C87.251 10.2641 87.4824 10.507 87.4824 10.8107V13.9689Z" fill="#333333"/>
<path d="M115.023 25.5085C115.023 25.8122 114.792 26.0551 114.502 26.0551H105.853C105.043 26.0551 104.29 25.9033 103.596 25.5692C102.902 25.2655 102.294 24.81 101.774 24.2938C101.253 23.7472 100.848 23.1095 100.559 22.3807C100.269 21.6518 100.096 20.8623 100.096 20.012C100.096 19.1617 100.24 18.3722 100.559 17.6434C100.848 16.9146 101.282 16.2768 101.774 15.7302C102.294 15.1836 102.902 14.7585 103.596 14.4548C104.29 14.1511 105.043 13.9689 105.853 13.9689H114.879C115.689 13.9689 116.441 14.1208 117.135 14.4548C117.829 14.7585 118.437 15.214 118.958 15.7302C119.478 16.2768 119.883 16.9146 120.173 17.6434C120.462 18.3722 120.636 19.1617 120.636 20.012V25.5085C120.636 25.8122 120.404 26.0551 120.115 26.0551H117.656C117.367 26.0551 117.135 25.8122 117.135 25.5085V20.012C117.135 19.3439 116.904 18.7973 116.47 18.3418C116.036 17.8863 115.515 17.6434 114.879 17.6434H105.853C105.216 17.6434 104.695 17.8863 104.262 18.3418C103.828 18.7973 103.596 19.3439 103.596 20.012C103.596 20.6801 103.828 21.2267 104.262 21.6822C104.695 22.1377 105.216 22.3807 105.853 22.3807H114.502C114.792 22.3807 115.023 22.6236 115.023 22.9273V25.5085Z" fill="#333333"/>
<path d="M125.091 26.0551H122.632C122.342 26.0551 122.111 25.8121 122.111 25.5085V10.8107C122.111 10.507 122.342 10.2641 122.632 10.2641H125.091C125.38 10.2641 125.611 10.507 125.611 10.8107V25.5085C125.611 25.8121 125.38 26.0551 125.091 26.0551Z" fill="#333333"/>
</svg>
